<?xml version="1.0" encoding="utf-8"?>
<!-- Generator: Adobe Illustrator 19.2.0, SVG Export Plug-In . SVG Version: 6.00 Build 0)  -->
<svg version="1.1" xmlns="http://www.w3.org/2000/svg" xmlns:xlink="http://www.w3.org/1999/xlink" x="0px" y="0px"
	 viewBox="0 0 256 250" enable-background="new 0 0 256 250" xml:space="preserve">
<g id="Layer_2">
</g>
<g id="Layer_1">
	<path fill-rule="evenodd" clip-rule="evenodd" fill="#353533" d="M128,0C57.3,0,0,57.4,0,128.2c0,56.6,36.7,104.7,87.5,121.6
		c6.4,1.2,8.7-2.8,8.7-6.2c0-3-0.1-11.1-0.2-21.8C60.5,229.5,53,204.6,53,204.6c-5.8-14.8-14.2-18.7-14.2-18.7
		c-11.6-8,0.9-7.8,0.9-7.8c12.8,0.9,19.6,13.2,19.6,13.2c11.4,19.6,30,13.9,37.3,10.6c1.2-8.3,4.5-13.9,8.1-17.1
		c-28.4-3.2-58.3-14.2-58.3-63.3c0-14,5-25.4,13.2-34.4c-1.3-3.2-5.7-16.3,1.3-33.9c0,0,10.7-3.4,35.2,13.1
		c10.2-2.8,21.2-4.3,32-4.3c10.9,0,21.8,1.5,32,4.3c24.4-16.6,35.2-13.1,35.2-13.1c7,17.6,2.6,30.7,1.3,33.9
		c8.2,9,13.2,20.4,13.2,34.4c0,49.2-29.9,60.1-58.4,63.2c4.6,4,8.7,11.8,8.7,23.7c0,17.1-0.2,31-0.2,35.2c0,3.4,2.3,7.4,8.8,6.2
		c50.8-17,87.5-65,87.5-121.6C256,57.4,198.7,0,128,0z"/>
</g>
</svg>
